<?xml version="1.0" standalone="no"?>
<!DOCTYPE svg PUBLIC "-//W3C//DTD SVG 20010904//EN"
 "http://www.w3.org/TR/2001/REC-SVG-20010904/DTD/svg10.dtd">
<svg version="1.0" xmlns="http://www.w3.org/2000/svg"
 width="700.000000pt" height="700.000000pt" viewBox="0 0 700.000000 700.000000"
 preserveAspectRatio="xMidYMid meet">
<metadata>
Created by potrace 1.14, written by Peter Selinger 2001-2017
</metadata>
<g transform="translate(0.000000,700.000000) scale(0.100000,-0.100000)"
fill="#000000" stroke="none">
<path d="M2277 6124 c-1 -1 -27 -5 -57 -8 -176 -21 -358 -108 -493 -236 -124
-116 -230 -314 -253 -470 -3 -19 -7 -46 -10 -60 -9 -54 -5 -748 5 -810 47
-288 211 -518 466 -652 222 -117 518 -124 758 -19 222 97 409 312 478 551 32
106 32 110 35 515 3 481 -5 538 -102 724 -148 282 -433 457 -757 465 -37 1
-69 1 -70 0z m184 -613 c79 -41 143 -121 157 -193 3 -18 6 -186 6 -373 l0
-340 -26 -55 c-54 -111 -135 -166 -258 -174 -84 -6 -194 50 -246 126 -48 69
-52 105 -50 478 1 336 2 346 24 391 32 64 95 125 156 149 68 27 175 23 237 -9z"/>
<path d="M4009 6113 c-85 -22 -143 -70 -186 -155 -71 -139 -4 -326 139 -388
60 -26 88 -29 273 -29 l140 -1 -1 -577 c-1 -318 -2 -580 -3 -583 0 -3 -79 -5
-175 -6 l-174 0 -65 -32 c-103 -51 -159 -138 -162 -251 -4 -118 60 -221 169
-272 l60 -28 635 0 c729 0 703 -3 793 86 148 146 102 390 -90 475 -41 18 -69
21 -224 22 l-178 1 0 65 c-1 36 -2 380 -3 765 l-2 700 -29 57 c-39 77 -90 121
-171 148 -55 19 -675 21 -746 3z"/>
<path d="M1685 3201 c-132 -33 -217 -139 -222 -277 -4 -122 59 -222 174 -275
43 -19 66 -21 225 -23 171 -1 178 -2 179 -21 2 -103 0 -1137 -3 -1140 -2 -2
-77 -5 -166 -5 -218 -2 -278 -22 -350 -115 -117 -152 -61 -368 117 -448 45
-20 61 -21 674 -22 682 -1 692 0 771 54 73 51 116 129 121 224 7 111 -57 222
-159 274 -49 26 -59 27 -236 31 l-185 4 0 752 c-1 721 -1 753 -20 805 -24 66
-85 131 -151 163 -48 23 -55 23 -394 25 -190 1 -358 -2 -375 -6z"/>
<path d="M4560 3203 c-286 -45 -528 -208 -657 -443 -98 -179 -111 -261 -112
-706 0 -283 3 -380 15 -450 54 -308 266 -566 556 -674 158 -58 356 -69 519
-27 344 89 593 364 650 715 11 71 14 748 4 817 -4 22 -8 49 -10 60 -43 254
-223 496 -457 616 -66 33 -185 74 -243 84 -50 8 -232 14 -265 8z m212 -600
c66 -23 139 -95 164 -160 17 -44 19 -81 19 -408 0 -353 -1 -361 -23 -405 -123
-249 -487 -213 -547 54 -17 75 -13 688 4 741 40 121 166 207 294 199 21 -1 61
-11 89 -21z"/>
</g>
</svg>
